<?xml version="1.0" encoding="UTF-8" standalone="no" ?>
<!DOCTYPE svg PUBLIC "-//W3C//DTD SVG 1.1//EN" "http://www.w3.org/Graphics/SVG/1.1/DTD/svg11.dtd">
<svg xmlns="http://www.w3.org/2000/svg" xmlns:xlink="http://www.w3.org/1999/xlink" version="1.1" width="1280" height="509.8260223559261" viewBox="0 0 1280 509.8260223559261" xml:space="preserve">
<desc>Created with Fabric.js 5.3.0</desc>
<defs>
</defs>
<g transform="matrix(1 0 0 1 640 254.91301117796306)" id="background-logo"  >
<rect style="stroke: none; stroke-width: 0; stroke-dasharray: none; stroke-linecap: butt; stroke-dashoffset: 0; stroke-linejoin: miter; stroke-miterlimit: 4; fill: rgb(255,255,255); fill-opacity: 0; fill-rule: nonzero; opacity: 1;"  paint-order="stroke"  x="-762.0781284348473" y="-609.6625027478779" rx="0" ry="0" width="1524.1562568696945" height="1219.3250054957557" />
</g>
<g transform="matrix(2.2277213043764927 0 0 2.2277213043764927 182.8987508243634 177.49776753656533)" id="logo-logo"  >
<g style=""  paint-order="stroke"   >
		<g transform="matrix(0.8344897203358166 0 0 -0.8344897203358166 -39.23562042588918 44.42214093572042)"  >
<path style="stroke: none; stroke-width: 1; stroke-dasharray: none; stroke-linecap: butt; stroke-dashoffset: 0; stroke-linejoin: miter; stroke-miterlimit: 4; fill: rgb(220,179,96); fill-rule: nonzero; opacity: 1;"  paint-order="stroke"  transform=" translate(-50.8675, 41.747)" d="M 0 0 L 0 -26.369 L 101.735 -83.494 L 101.735 -57.123999999999995 z" stroke-linecap="round" />
</g>
		<g transform="matrix(0.8344897203358166 0 0 -0.8344897203358166 0 -11.385110152485623)"  >
<path style="stroke: none; stroke-width: 1; stroke-dasharray: none; stroke-linecap: butt; stroke-dashoffset: 0; stroke-linejoin: miter; stroke-miterlimit: 4; fill: rgb(220,179,96); fill-rule: nonzero; opacity: 1;"  paint-order="stroke"  transform=" translate(97.885, -6.788500000000013)" d="M 0 0 L 0 88.125 L -75.507 88.125 L -33.934000000000005 65.132 L -22.993000000000002 65.132 L -22.993000000000002 38.845 L -112.78999999999999 88.125 L -195.76999999999998 88.125 L -195.76999999999998 55.576 L -42.171 -27.849 L -55.133 -45.835 L -195.77 29.485 L -195.77 3.403 L -50.22 -74.54799999999999 L -8.68 -19.873999999999988 L -165.19 65.132 L -118.684 65.132 z" stroke-linecap="round" />
</g>
</g>
</g>
<g transform="matrix(2.34485577979953 0 0 2.34485577979953 813.4088726565903 332.8939332938297)" id="text-logo"  >
<g style=""  paint-order="stroke"   >
		<g transform="matrix(1 0 0 1 0 0)" id="text-logo-path-0"  >
<filter id="SVGID_281829" y="-79.4000594000594%" height="258.8001188001188%" x="-25.587060368187277%" width="151.17412073637456%" >
	<feGaussianBlur in="SourceAlpha" stdDeviation="10"></feGaussianBlur>
	<feOffset dx="0" dy="0" result="oBlur" ></feOffset>
	<feFlood flood-color="rgb(0,0,0)" flood-opacity="1"/>
	<feComposite in2="oBlur" operator="in" />
	<feMerge>
		<feMergeNode></feMergeNode>
		<feMergeNode in="SourceGraphic"></feMergeNode>
	</feMerge>
</filter>
<path style="stroke: none; stroke-width: 0; stroke-dasharray: none; stroke-linecap: butt; stroke-dashoffset: 0; stroke-linejoin: miter; stroke-miterlimit: 4; fill: rgb(220,179,96); fill-rule: nonzero; opacity: 1;filter: url(#SVGID_281829);"  paint-order="stroke"  transform=" translate(-181.65499999999997, 15.735)" d="M 10.58 -32.57 L 2.67 -32.57 L 2.67 0.37 L 10.76 0.37 L 10.76 -18.81 L 26.31 0.37 L 34.22 0.37 L 34.22 -32.57 L 26.13 -32.57 L 26.13 -13.39 Z M 10.21 -31.83 L 26.86 -11.27 L 26.86 -31.83 L 33.49 -31.83 L 33.49 -0.37 L 26.68 -0.37 L 10.03 -20.93 L 10.03 -0.37 L 3.4 -0.37 L 3.4 -31.83 Z M 88.41 -14.49 L 88.41 -32.57 L 80.32 -32.57 L 80.32 -14.49 C 80.32 -10.07 77.46 -6.99 72.91 -6.99 C 68.49 -6.99 65.41 -9.89 65.41 -14.49 L 65.41 -32.57 L 57.32 -32.57 L 57.32 -14.49 C 57.32 -5.47 63.57 1.1 72.96 1.1 C 81.83 1.1 88.41 -5.15 88.41 -14.49 Z M 87.68 -14.49 C 87.68 -5.47 81.51 0.37 72.96 0.37 C 63.89 0.37 58.05 -5.8 58.05 -14.49 L 58.05 -31.83 L 64.68 -31.83 L 64.68 -14.49 C 64.68 -9.57 68.17 -6.26 72.91 -6.26 C 77.79 -6.26 81.05 -9.75 81.05 -14.49 L 81.05 -31.83 L 87.68 -31.83 Z M 120.34 -32.57 L 111.92 -32.57 L 111.92 0.37 L 120.01 0.37 L 120.01 -15.27 L 127.05 0.37 L 135.52 0.37 L 142.55 -15.27 L 142.55 0.37 L 150.65 0.37 L 150.65 -32.57 L 142.23 -32.57 L 131.28 -9.06 Z M 119.88 -31.83 L 131.28 -7.31 L 142.69 -31.83 L 149.91 -31.83 L 149.91 -0.37 L 143.29 -0.37 L 143.29 -16.93 L 142.6 -17.07 L 135.06 -0.37 L 127.51 -0.37 L 119.97 -17.07 L 119.28 -16.93 L 119.28 -0.37 L 112.65 -0.37 L 112.65 -31.83 Z M 200.24 -32.57 L 175.67 -32.57 L 175.67 0.37 L 200.24 0.37 L 200.24 -7.27 L 183.77 -7.27 L 183.77 -12.28 L 197.02 -12.28 L 197.02 -19.46 L 183.77 -19.46 L 183.77 -24.93 L 200.24 -24.93 Z M 199.5 -31.83 L 199.5 -25.67 L 183.03 -25.67 L 183.03 -18.72 L 196.28 -18.72 L 196.28 -13.02 L 183.03 -13.02 L 183.03 -6.53 L 199.5 -6.53 L 199.5 -0.37 L 176.41 -0.37 L 176.41 -31.83 Z M 251.8 -24.93 L 251.8 -32.57 L 222.59 -32.57 L 222.59 -24.93 L 233.13 -24.93 L 233.13 0.37 L 241.22 0.37 L 241.22 -24.93 Z M 251.07 -25.67 L 240.49 -25.67 L 240.49 -0.37 L 233.86 -0.37 L 233.86 -25.67 L 223.33 -25.67 L 223.33 -31.83 L 251.07 -31.83 Z M 289.02 -32.57 L 275.03 -32.57 L 275.03 0.37 L 283.13 0.37 L 283.13 -6.67 L 288.83 -6.67 L 293.16 0.37 L 302.77 0.37 L 296.61 -9.02 C 299.83 -11.27 301.9 -15.09 301.9 -19.69 C 301.9 -26.96 296.56 -32.57 289.02 -32.57 Z M 275.77 -31.83 L 289.02 -31.83 C 296.24 -31.83 301.16 -26.63 301.16 -19.69 C 301.16 -15 299 -11.32 295.6 -9.2 L 301.39 -0.37 L 293.53 -0.37 L 289.2 -7.41 L 282.39 -7.41 L 282.39 -0.37 L 275.77 -0.37 Z M 288.01 -14.31 L 283.13 -14.31 L 283.13 -24.93 L 288.01 -24.93 C 291.13 -24.93 293.34 -22.86 293.34 -19.64 C 293.34 -16.47 291.32 -14.31 288.01 -14.31 Z M 288.01 -13.57 C 291.64 -13.57 294.08 -16.15 294.08 -19.64 C 294.08 -23.18 291.46 -25.67 288.01 -25.67 L 282.39 -25.67 L 282.39 -13.57 Z M 338.01 -32.57 L 323.89 0.37 L 332.72 0.37 L 334.74 -4.37 L 349.78 -4.37 L 351.81 0.37 L 360.64 0.37 L 346.52 -32.57 Z M 338.47 -31.83 L 346.06 -31.83 L 359.54 -0.37 L 352.27 -0.37 L 350.24 -5.11 L 334.28 -5.11 L 332.26 -0.37 L 324.99 -0.37 Z M 346.7 -11.55 L 337.82 -11.55 L 342.29 -21.9 Z M 347.81 -10.81 L 342.29 -23.74 L 336.72 -10.81 Z" stroke-linecap="round" />
</g>
</g>
</g>
<g transform="matrix(2.3444986469067026 0.04092337610587477 -0.04092337610587477 2.3444986469067026 739.3375244939982 440.6765663663235)" id="tagline-3f41a7dc-3fe8-4f3a-a30c-95b4516446a6-logo"  >
<g style=""  paint-order="stroke"   >
		<g transform="matrix(1 0 0 1 0 -12.30260000000004)" id="tagline-3f41a7dc-3fe8-4f3a-a30c-95b4516446a6-logo-path-0"  >
<path style="stroke: none; stroke-width: 0; stroke-dasharray: none; stroke-linecap: butt; stroke-dashoffset: 0; stroke-linejoin: miter; stroke-miterlimit: 4; fill: rgb(220,179,96); fill-rule: nonzero; opacity: 1;"  paint-order="stroke"  transform=" translate(-87.64500000000001, 6.6499999999999995)" d="M 0.68 0 L 4.01 0 L 4.84 -1.96 L 11.25 -1.96 L 12.08 0 L 15.41 0 L 9.71 -13.3 L 6.38 -13.3 Z M 5.98 -4.62 L 8.06 -9.42 L 10.11 -4.62 Z M 27.4 -13.3 L 27.4 0 L 33.25 0 C 37.09 0 39.9 -2.66 39.9 -6.65 C 39.9 -10.49 37.24 -13.3 33.25 -13.3 Z M 30.44 -2.85 L 30.44 -10.45 L 32.87 -10.45 C 35.07 -10.45 36.67 -8.95 36.67 -6.65 C 36.67 -4.45 35.17 -2.85 32.87 -2.85 Z M 49.27 -13.3 L 54.97 0 L 58.39 0 L 64.09 -13.3 L 60.76 -13.3 L 56.68 -3.76 L 52.59 -13.3 Z M 76.04 -13.3 L 76.04 0 L 79.08 0 L 79.08 -13.3 Z M 96.77 -13.6 C 93.71 -13.6 91.29 -11.78 91.29 -9.33 C 91.29 -6.35 94.83 -5.6 96.84 -5.13 C 98.1 -4.83 99.22 -4.54 99.22 -3.69 C 99.22 -3.12 98.69 -2.74 97.24 -2.74 C 95.23 -2.74 94.6 -3.42 94.13 -4.56 L 91.26 -3.48 C 91.79 -1.63 93.59 0.3 97.07 0.3 C 100.21 0.3 102.45 -1.29 102.45 -3.86 C 102.45 -6.82 99.46 -7.54 97.36 -8.09 C 95.46 -8.59 94.52 -8.83 94.52 -9.48 C 94.52 -10.26 95.76 -10.56 96.73 -10.56 C 97.91 -10.56 98.65 -9.97 98.84 -9.42 L 101.84 -10.54 C 101.21 -12.16 99.48 -13.6 96.77 -13.6 Z M 120.71 0.3 C 124.72 0.3 127.64 -2.45 127.64 -6.63 C 127.64 -10.68 124.91 -13.6 120.71 -13.6 C 116.7 -13.6 113.77 -10.83 113.77 -6.63 C 113.77 -2.62 116.53 0.3 120.71 0.3 Z M 120.71 -2.7 C 118.54 -2.7 116.94 -4.39 116.94 -6.63 C 116.94 -8.83 118.43 -10.6 120.71 -10.6 C 122.87 -10.6 124.47 -8.89 124.47 -6.63 C 124.47 -4.46 122.97 -2.7 120.71 -2.7 Z M 139.38 0 L 142.42 0 L 142.42 -2.91 L 145.01 -2.91 L 146.79 0 L 150.4 0 L 147.93 -3.76 C 149.28 -4.66 150.18 -6.21 150.18 -8.13 C 150.18 -11.06 148.05 -13.3 145.01 -13.3 L 139.38 -13.3 Z M 142.42 -5.76 L 142.42 -10.45 L 144.59 -10.45 C 145.94 -10.45 146.95 -9.5 146.95 -8.11 C 146.95 -6.75 146.01 -5.76 144.59 -5.76 Z M 159.98 -13.3 L 165.68 -4.94 L 165.77 -4.81 L 165.77 0 L 168.81 0 L 168.81 -4.79 L 174.61 -13.3 L 171.09 -13.3 L 167.29 -7.43 L 163.49 -13.3 Z" stroke-linecap="round" />
</g>
		<g transform="matrix(1 0 0 1 0.06174999999996089 19.25260000000003)" id="tagline-3f41a7dc-3fe8-4f3a-a30c-95b4516446a6-logo-path-1"  >
<path style="stroke: none; stroke-width: 0; stroke-dasharray: none; stroke-linecap: butt; stroke-dashoffset: 0; stroke-linejoin: miter; stroke-miterlimit: 4; fill: rgb(220,179,96); fill-rule: nonzero; opacity: 1;"  paint-order="stroke"  transform=" translate(0, 0)" d="" stroke-linecap="round" />
</g>
</g>
</g>
<g transform="matrix(2.34485577979953 0 0 2.34485577979953 728.5579118474349 479.36634577633015)" id="tagline-a2c76dfb-0ddf-4432-b147-48703eaba7dd-logo"  >
<g style=""  paint-order="stroke"   >
		<g transform="matrix(1 0 0 1 5.684342e-14 0)" id="tagline-a2c76dfb-0ddf-4432-b147-48703eaba7dd-logo-path-0"  >
<path style="stroke: none; stroke-width: 0; stroke-dasharray: none; stroke-linecap: butt; stroke-dashoffset: 0; stroke-linejoin: miter; stroke-miterlimit: 4; fill: rgb(216,176,98); fill-rule: nonzero; opacity: 1;"  paint-order="stroke"  transform=" translate(-138.555, 6.3100000000000005)" d="M -0.17 -2.1 L -0.17 -2.1 Q -0.17 -4 2.43 -4 L 2.43 -4 Q 2.29 -3.27 2.29 -2.38 Q 2.29 -1.49 2.59 -1.02 Q 2.88 -0.55 3.63 -0.5 L 3.63 -0.5 Q 4.53 -0.5 5.37 -1.87 Q 6.21 -3.23 6.85 -5.35 Q 7.48 -7.46 7.98 -9.55 Q 8.47 -11.63 8.88 -13.54 Q 9.29 -15.44 9.47 -15.93 L 9.47 -15.93 Q 10.23 -16.75 11.38 -16.75 L 11.38 -16.75 L 11.4 -16.75 Q 10.49 -17 9.73 -17 L 9.73 -17 Q 8.03 -17 6.47 -16.34 Q 4.91 -15.67 3.99 -14.65 Q 3.08 -13.62 3.08 -12.6 L 3.08 -12.6 Q 3.08 -11.1 5.03 -10.25 L 5.03 -10.25 Q 5.03 -9.73 4.91 -9.04 Q 4.79 -8.35 4.68 -8.2 L 4.68 -8.2 Q 2.73 -9 1.78 -10.13 Q 0.83 -11.25 0.83 -12.34 Q 0.83 -13.42 1.28 -14.29 Q 1.72 -15.17 2.55 -15.93 Q 3.38 -16.69 4.49 -17.27 L 4.49 -17.27 Q 6.87 -18.53 9.97 -18.53 L 9.97 -18.53 Q 11.07 -18.53 13.56 -18.08 Q 16.04 -17.63 16.96 -17.63 Q 17.88 -17.63 18.55 -17.81 Q 19.21 -17.99 19.87 -18.27 Q 20.52 -18.54 20.75 -18.6 L 20.75 -18.6 Q 20.3 -17.08 19.09 -16.19 Q 17.87 -15.3 16.25 -15.3 L 16.25 -15.3 Q 15.38 -15.3 14.67 -15.54 Q 13.96 -15.78 13.32 -16.04 Q 12.67 -16.3 12.4 -16.39 L 12.4 -16.39 Q 12.27 -15.76 12.01 -14.42 Q 11.76 -13.09 11.61 -12.41 Q 11.47 -11.74 11.19 -10.45 Q 10.91 -9.16 10.68 -8.38 Q 10.45 -7.6 10.08 -6.43 Q 9.72 -5.25 9.34 -4.52 Q 8.97 -3.78 8.48 -2.86 Q 8 -1.94 7.44 -1.38 Q 6.88 -0.82 6.23 -0.29 L 6.23 -0.29 Q 4.96 0.7 3.13 0.7 L 3.13 0.7 Q 0.84 0.7 0.04 -1.16 L 0.04 -1.16 Q -0.17 -1.64 -0.17 -2.1 Z M 11.74 -1.7 L 11.74 -1.7 Q 11.74 -2.39 11.91 -3.05 L 11.91 -3.05 Q 12.65 -5.82 13.94 -9.55 L 13.94 -9.55 Q 13.99 -9.85 15.92 -9.85 L 15.92 -9.85 L 16.35 -9.85 Q 16.35 -9.83 15.84 -8.25 L 15.84 -8.25 Q 14.34 -3.53 14.34 -2.65 Q 14.34 -1.77 15.16 -1.77 L 15.16 -1.77 Q 15.86 -1.77 16.89 -2.37 Q 17.92 -2.97 18.09 -3.32 L 18.09 -3.32 L 19.42 -8.4 Q 19.69 -9.44 20.15 -9.67 L 20.15 -9.67 Q 20.51 -9.85 21.29 -9.85 L 21.29 -9.85 L 22.12 -9.85 Q 20.57 -4.25 20.29 -3 L 20.29 -3 Q 20.19 -2.08 20.19 -1.89 Q 20.19 -1.71 20.25 -1.64 Q 20.3 -1.57 20.5 -1.57 L 20.5 -1.57 Q 21.12 -1.57 24.89 -5.35 L 24.89 -5.35 L 24.89 -3.98 Q 24.6 -3.71 23.88 -3.03 Q 23.16 -2.36 22.78 -2.01 Q 22.4 -1.66 21.76 -1.14 Q 21.12 -0.61 20.69 -0.34 L 20.69 -0.34 Q 19.58 0.35 18.87 0.35 L 18.87 0.35 Q 17.82 0.35 17.82 -1.25 L 17.82 -1.25 Q 17.82 -1.92 17.94 -2.38 L 17.94 -2.38 Q 15.12 0.35 13.17 0.35 L 13.17 0.35 Q 11.74 0.35 11.74 -1.7 Z M 24.87 -3.96 L 24.87 -3.96 L 24.87 -5.32 L 27.34 -7.9 Q 25.85 -8.26 25.42 -9.05 L 25.42 -9.05 Q 25.32 -9.2 25.32 -9.33 L 25.32 -9.33 Q 25.32 -10.18 25.96 -10.83 Q 26.61 -11.47 27.69 -11.47 L 27.69 -11.47 Q 28.23 -11.47 28.23 -10.83 L 28.23 -10.83 Q 28.23 -10.45 28.02 -10 Q 27.8 -9.56 27.49 -9.4 L 27.49 -9.4 Q 28.05 -8.9 29.42 -8.9 L 29.42 -8.9 L 30.88 -9.07 Q 31.24 -9.07 31.24 -8.9 Q 31.24 -8.73 30.4 -6.98 L 30.4 -6.98 Q 28.47 -3.03 28.47 -2.22 L 28.47 -2.22 Q 28.47 -2.21 28.45 -2.13 Q 28.44 -2.05 28.45 -2.01 Q 28.47 -1.97 28.48 -1.89 Q 28.49 -1.82 28.52 -1.78 L 28.52 -1.78 Q 28.6 -1.67 28.76 -1.67 L 28.76 -1.67 Q 29.08 -1.67 30.71 -3.12 Q 32.34 -4.57 32.93 -5.37 L 32.93 -5.37 L 32.93 -4 Q 28.58 0.35 27.06 0.35 L 27.06 0.35 Q 26.53 0.35 26.26 -0.13 Q 25.99 -0.61 25.99 -1.07 Q 25.99 -1.54 26.17 -2.14 Q 26.35 -2.75 26.67 -3.53 Q 26.98 -4.31 27.25 -4.94 Q 27.51 -5.58 27.84 -6.32 Q 28.16 -7.06 28.21 -7.18 L 28.21 -7.18 Q 27.51 -6.47 26.59 -5.63 Q 25.67 -4.79 24.87 -3.96 Z M 33.48 0 L 31.15 0 Q 31.16 -1.32 31.9 -4.37 Q 32.63 -7.42 33.2 -8.87 L 33.2 -8.87 Q 33.44 -9.46 33.87 -9.66 Q 34.3 -9.85 35.03 -9.85 L 35.03 -9.85 L 35.85 -9.85 Q 34.96 -6.77 34.53 -5.42 L 34.53 -5.42 Q 35.35 -6.95 36.9 -8.52 L 36.9 -8.52 Q 37.66 -9.28 38.55 -9.77 Q 39.44 -10.25 40.23 -10.25 L 40.23 -10.25 Q 41.43 -10.25 41.43 -8.83 L 41.43 -8.83 Q 41.43 -8.14 40.57 -5.58 Q 39.71 -3.03 39.71 -2.76 Q 39.71 -2.5 39.86 -2.5 Q 40.01 -2.5 40.26 -2.67 Q 40.52 -2.83 41.71 -3.97 Q 42.91 -5.11 43.15 -5.32 L 43.15 -5.32 L 43.15 -3.96 Q 41.21 -1.98 39.72 -0.81 Q 38.22 0.35 37.72 0.35 L 37.72 0.35 Q 36.8 0.35 36.8 -0.67 Q 36.8 -1.7 37.26 -3.12 Q 37.72 -4.54 38.18 -5.69 Q 38.64 -6.85 38.64 -7.24 Q 38.64 -7.63 38.49 -7.81 Q 38.35 -8 38.16 -8 L 38.16 -8 Q 37.46 -8 36.66 -7.03 Q 35.85 -6.05 35.22 -4.68 L 35.22 -4.68 Q 33.9 -1.82 33.48 0 L 33.48 0 Z M 42.31 -0.13 Q 42.04 -0.61 42.04 -1.37 Q 42.04 -2.12 42.72 -4.92 Q 43.41 -7.71 43.63 -8.3 Q 43.86 -8.89 44.01 -9.12 Q 44.15 -9.35 44.37 -9.48 Q 44.59 -9.62 44.76 -9.7 Q 44.92 -9.78 45.26 -9.81 L 45.26 -9.81 Q 45.74 -9.85 46.44 -9.85 L 46.44 -9.85 Q 44.51 -3.67 44.51 -2.43 L 44.51 -2.43 Q 44.51 -1.62 44.93 -1.62 L 44.93 -1.62 Q 45.2 -1.62 46.62 -3.02 Q 48.05 -4.42 48.89 -5.35 L 48.89 -5.35 L 48.89 -3.98 Q 46.48 -1.61 45.67 -0.93 L 45.67 -0.93 Q 44.18 0.31 43.12 0.35 L 43.12 0.35 Q 42.58 0.35 42.31 -0.13 Z M 45.74 -13.98 L 45.74 -13.98 Q 45.74 -14.59 46.2 -15.16 Q 46.66 -15.72 47.28 -15.72 Q 47.9 -15.72 48.21 -15.48 Q 48.51 -15.23 48.51 -14.74 Q 48.51 -14.25 47.93 -13.67 Q 47.35 -13.1 46.61 -13.1 L 46.61 -13.1 Q 45.74 -13.1 45.74 -13.98 Z M 49.44 0 L 47.11 0 Q 47.12 -1.32 47.85 -4.37 Q 48.58 -7.42 49.16 -8.87 L 49.16 -8.87 Q 49.39 -9.46 49.82 -9.66 Q 50.26 -9.85 50.99 -9.85 L 50.99 -9.85 L 51.81 -9.85 Q 50.92 -6.77 50.49 -5.42 L 50.49 -5.42 Q 51.31 -6.95 52.86 -8.52 L 52.86 -8.52 Q 53.61 -9.28 54.5 -9.77 Q 55.4 -10.25 56.19 -10.25 L 56.19 -10.25 Q 57.39 -10.25 57.39 -8.83 L 57.39 -8.83 Q 57.39 -8.14 56.52 -5.58 Q 55.66 -3.03 55.66 -2.76 Q 55.66 -2.5 55.82 -2.5 Q 55.97 -2.5 56.22 -2.67 Q 56.47 -2.83 57.67 -3.97 Q 58.86 -5.11 59.11 -5.32 L 59.11 -5.32 L 59.11 -3.96 Q 57.17 -1.98 55.67 -0.81 Q 54.17 0.35 53.67 0.35 L 53.67 0.35 Q 52.76 0.35 52.76 -0.67 Q 52.76 -1.7 53.22 -3.12 Q 53.67 -4.54 54.13 -5.69 Q 54.59 -6.85 54.59 -7.24 Q 54.59 -7.63 54.45 -7.81 Q 54.31 -8 54.11 -8 L 54.11 -8 Q 53.42 -8 52.61 -7.03 Q 51.81 -6.05 51.17 -4.68 L 51.17 -4.68 Q 49.85 -1.82 49.44 0 L 49.44 0 Z M 58.71 -0.4 Q 58.26 -1.16 58.26 -2.18 Q 58.26 -3.2 58.59 -4.35 Q 58.91 -5.51 59.53 -6.56 Q 60.14 -7.6 60.96 -8.44 Q 61.78 -9.27 62.87 -9.76 Q 63.95 -10.25 65.08 -10.25 Q 66.2 -10.25 68.76 -9.78 L 68.76 -9.78 L 66.89 -1.88 Q 67.22 -2.19 67.89 -2.81 Q 68.55 -3.44 68.84 -3.71 L 68.84 -3.71 Q 69.57 -4.38 70.47 -5.37 L 70.47 -5.37 L 70.47 -4 L 66.64 -0.28 Q 66.06 2.88 64.4 4.83 L 64.4 4.83 Q 63.65 5.7 62.82 6.19 Q 61.99 6.68 61.33 6.68 Q 60.67 6.68 60.16 6.5 Q 59.66 6.32 59.28 5.91 Q 58.91 5.49 58.91 5.11 Q 58.91 4.74 58.95 4.57 Q 59 4.39 59.13 4.21 Q 59.27 4.03 59.34 3.91 Q 59.42 3.8 59.67 3.59 Q 59.91 3.38 60 3.31 Q 60.08 3.23 60.41 2.98 Q 60.74 2.73 60.82 2.67 L 60.82 2.67 L 64.2 0.07 L 64.59 -2 Q 63.02 -0.61 61.99 -0.13 Q 60.96 0.35 60.06 0.35 Q 59.16 0.35 58.71 -0.4 Z M 60.91 4.22 Q 60.69 4.68 60.69 5.16 Q 60.69 5.64 60.91 5.82 Q 61.12 6.01 61.6 6.01 L 61.6 6.01 Q 62.57 6.01 63.19 4.75 Q 63.81 3.49 64.04 1.43 L 64.04 1.43 L 62.04 3.13 Q 61.96 3.19 61.74 3.36 Q 61.52 3.53 61.43 3.61 Q 61.33 3.7 61.16 3.88 Q 60.99 4.06 60.91 4.22 L 60.91 4.22 Z M 60.94 -3.96 L 60.94 -3.96 Q 60.94 -1.6 62.12 -1.6 L 62.12 -1.6 Q 63.17 -1.6 64.77 -3.41 L 64.77 -3.41 L 66.19 -9.35 Q 65.3 -9.57 64.99 -9.57 L 64.99 -9.57 Q 64.17 -9.57 63.4 -9.03 Q 62.63 -8.5 62.11 -7.68 L 62.11 -7.68 Q 60.94 -5.88 60.94 -3.96 Z M 73.69 -13.75 L 73.69 -13.75 Q 73.69 -14.04 74 -14.25 L 74 -14.25 L 79.25 -17.55 Q 80.73 -18.51 81.32 -18.51 L 81.32 -18.51 Q 81.57 -18.51 81.57 -18.27 L 81.57 -18.27 Q 81.57 -17.57 81.09 -15.7 Q 80.62 -13.84 80.62 -13.7 L 80.62 -13.7 L 80.42 -12.7 Q 84.41 -17.44 87.85 -18.32 L 87.85 -18.32 Q 88.57 -18.51 89.22 -18.51 L 89.22 -18.51 Q 90.25 -18.51 90.25 -17.37 L 90.25 -17.37 Q 90.25 -17.03 89.73 -14.53 L 89.73 -14.53 Q 88.22 -6.99 88.22 -4.39 Q 88.22 -1.79 89.06 -1.79 L 89.06 -1.79 Q 89.51 -1.79 90.09 -2.38 L 90.09 -2.38 L 93.21 -5.37 L 93.19 -4.03 Q 91.76 -2.51 91.54 -2.36 L 91.54 -2.36 Q 88.35 0.7 87.15 0.7 L 87.15 0.7 Q 85.47 0.7 85.47 -3.36 Q 85.47 -7.42 86.57 -12.83 L 86.57 -12.83 Q 86.63 -13.1 86.79 -13.67 L 86.79 -13.67 Q 87.15 -14.97 87.15 -15.47 Q 87.15 -15.98 86.82 -15.98 L 86.82 -15.98 Q 86.66 -15.98 85.97 -15.69 Q 85.29 -15.41 84.41 -14.86 Q 83.52 -14.32 82.86 -13.77 Q 82.19 -13.22 81.6 -12.55 Q 81.01 -11.88 80.6 -11.3 Q 80.19 -10.72 79.83 -10 Q 79.47 -9.28 79.25 -8.75 Q 79.03 -8.22 78.82 -7.54 L 78.82 -7.54 Q 78.49 -6.49 78.38 -5.97 Q 78.26 -5.44 77.97 -4.02 Q 77.69 -2.59 77.04 0 L 77.04 0 L 74.52 0 Q 74.52 -1.14 74.97 -3.04 Q 75.42 -4.94 76.18 -7.7 Q 76.94 -10.46 77.32 -12.15 L 77.32 -12.15 L 78.32 -16.03 L 74.39 -13.24 L 74.02 -13.12 Q 73.69 -13.12 73.69 -13.75 Z M 92.15 -1.7 L 92.15 -1.7 Q 92.15 -2.39 92.32 -3.05 L 92.32 -3.05 Q 93.05 -5.82 94.35 -9.55 L 94.35 -9.55 Q 94.4 -9.85 96.33 -9.85 L 96.33 -9.85 L 96.75 -9.85 Q 96.75 -9.83 96.25 -8.25 L 96.25 -8.25 Q 94.75 -3.53 94.75 -2.65 Q 94.75 -1.77 95.57 -1.77 L 95.57 -1.77 Q 96.26 -1.77 97.3 -2.37 Q 98.33 -2.97 98.5 -3.32 L 98.5 -3.32 L 99.83 -8.4 Q 100.1 -9.44 100.56 -9.67 L 100.56 -9.67 Q 100.92 -9.85 101.7 -9.85 L 101.7 -9.85 L 102.53 -9.85 Q 100.98 -4.25 100.7 -3 L 100.7 -3 Q 100.6 -2.08 100.6 -1.89 Q 100.6 -1.71 100.65 -1.64 Q 100.71 -1.57 100.9 -1.57 L 100.9 -1.57 Q 101.53 -1.57 105.3 -5.35 L 105.3 -5.35 L 105.3 -3.98 Q 105 -3.71 104.28 -3.03 Q 103.56 -2.36 103.19 -2.01 Q 102.81 -1.66 102.17 -1.14 Q 101.53 -0.61 101.1 -0.34 L 101.1 -0.34 Q 99.99 0.35 99.28 0.35 L 99.28 0.35 Q 98.23 0.35 98.23 -1.25 L 98.23 -1.25 Q 98.23 -1.92 98.35 -2.38 L 98.35 -2.38 Q 95.53 0.35 93.58 0.35 L 93.58 0.35 Q 92.15 0.35 92.15 -1.7 Z M 105.85 0 L 103.52 0 Q 103.61 -1.57 104.36 -4.93 Q 105.11 -8.28 105.73 -9.25 L 105.73 -9.25 Q 105.94 -9.64 106.46 -9.75 Q 106.98 -9.85 108.24 -9.85 L 108.24 -9.85 Q 108.07 -9 107.54 -7.37 Q 107.01 -5.75 106.9 -5.37 L 106.9 -5.37 Q 109.67 -10.23 112.43 -10.23 L 112.43 -10.23 Q 112.9 -10.23 113.13 -9.7 Q 113.37 -9.17 113.37 -8.33 Q 113.37 -7.5 112.72 -5.37 L 112.72 -5.37 Q 113.59 -7.07 115.05 -8.58 L 115.05 -8.58 Q 115.78 -9.33 116.64 -9.79 Q 117.49 -10.25 118.27 -10.25 L 118.27 -10.25 Q 119.64 -10.25 119.64 -8.37 L 119.64 -8.37 Q 119.64 -6.64 118.69 -3.83 L 118.69 -3.83 Q 118.42 -3.05 118.42 -2.8 Q 118.42 -2.55 118.54 -2.55 Q 118.65 -2.55 118.79 -2.62 Q 118.92 -2.69 119.11 -2.84 Q 119.3 -2.99 119.48 -3.16 Q 119.67 -3.32 119.96 -3.61 Q 120.25 -3.89 120.48 -4.12 Q 120.72 -4.35 121.09 -4.72 L 121.09 -4.72 L 121.74 -5.37 L 121.74 -4 Q 120.21 -2.43 118.55 -1.03 Q 116.89 0.38 116.3 0.38 L 116.3 0.38 Q 115.58 0.38 115.58 -0.7 L 115.58 -0.7 Q 115.58 -2.12 116.42 -4 Q 117.27 -5.87 117.27 -7.1 L 117.27 -7.1 Q 117.27 -7.43 117.04 -7.71 Q 116.81 -8 116.34 -8 Q 115.87 -8 115.22 -7.31 Q 114.58 -6.63 114.06 -5.68 Q 113.55 -4.74 113.05 -3.54 L 113.05 -3.54 Q 112.28 -1.65 111.82 0 L 111.82 0 L 109.47 0 Q 109.47 -1.6 110.47 -4.86 L 110.47 -4.86 Q 111.07 -6.8 111.07 -7.23 Q 111.07 -7.67 110.9 -7.86 Q 110.73 -8.04 110.56 -8.04 Q 110.39 -8.04 110.24 -8 L 110.24 -8 Q 109.45 -7.63 108.67 -6.56 Q 107.9 -5.49 107.34 -4.17 L 107.34 -4.17 Q 106.29 -1.73 105.85 0 L 105.85 0 Z M 121.67 -0.04 Q 121.23 -0.65 121.23 -1.64 Q 121.23 -2.64 121.34 -3.64 Q 121.45 -4.65 121.77 -6.04 Q 122.09 -7.43 122.28 -8.17 Q 122.46 -8.91 123.03 -10.88 Q 123.6 -12.85 123.82 -13.64 Q 124.04 -14.43 124.57 -15.42 Q 125.1 -16.41 125.82 -17.29 Q 126.54 -18.16 127.47 -18.73 Q 128.41 -19.3 129.32 -19.3 L 129.32 -19.3 Q 131.2 -19.3 131.2 -17.7 L 131.2 -17.7 Q 131.2 -14.59 125.1 -8.95 L 125.1 -8.95 Q 125 -8.56 124.73 -7.5 Q 124.45 -6.45 124.3 -5.81 L 124.3 -5.81 Q 123.85 -3.98 123.85 -2.88 L 123.85 -2.88 Q 123.85 -0.93 125.28 -0.93 L 125.28 -0.93 Q 126.14 -0.93 127.08 -1.63 Q 128.03 -2.33 128.65 -3.37 Q 129.27 -4.41 129.27 -5.32 L 129.27 -5.32 Q 129.27 -7.32 126.15 -7.32 L 126.15 -7.32 Q 126.32 -8 127.24 -8.73 Q 128.16 -9.47 128.85 -9.47 L 128.85 -9.47 Q 130.15 -9.47 130.79 -8.72 Q 131.42 -7.97 131.42 -6.66 Q 131.42 -5.35 131.01 -4.02 Q 130.6 -2.69 129.65 -1.9 L 129.65 -1.9 Q 130.54 -2.38 131.97 -3.79 Q 133.4 -5.2 133.65 -5.44 L 133.65 -5.44 L 133.63 -4.05 Q 132.07 -2.49 131.37 -2 Q 130.68 -1.5 130.11 -1.12 Q 129.54 -0.74 129.08 -0.53 Q 128.61 -0.32 127.97 -0.05 Q 127.32 0.21 126.7 0.35 L 126.7 0.35 Q 125.27 0.7 124.14 0.7 Q 123.01 0.7 122.47 0.51 Q 121.92 0.32 121.67 -0.04 L 121.67 -0.04 Z M 125.52 -11.28 L 125.52 -11.28 Q 126.78 -12.08 128.08 -14.01 Q 129.37 -15.93 129.37 -17.08 L 129.37 -17.08 Q 129.37 -17.9 128.55 -17.9 L 128.55 -17.9 Q 128.16 -17.9 127.41 -16.42 Q 126.66 -14.95 126.09 -13.35 Q 125.52 -11.74 125.52 -11.28 Z M 132.41 -3.15 L 132.41 -3.15 Q 132.41 -4.93 133.15 -6.55 Q 133.9 -8.17 135.3 -9.21 Q 136.69 -10.25 138.4 -10.25 L 138.4 -10.25 Q 141.28 -10.25 141.28 -8.11 L 141.28 -8.11 Q 141.28 -6.71 140.16 -5.68 Q 139.04 -4.65 137.63 -4.65 L 137.63 -4.65 Q 137.07 -4.65 136.46 -4.98 Q 135.85 -5.31 135.42 -5.97 L 135.42 -5.97 Q 134.9 -4.87 134.9 -3.82 L 134.9 -3.82 Q 134.9 -1 136.95 -1 L 136.95 -1 Q 137.49 -1 138.28 -1.51 Q 139.06 -2.03 139.67 -2.59 Q 140.27 -3.16 141.2 -4.1 Q 142.13 -5.03 142.48 -5.35 L 142.48 -5.35 L 142.48 -4 Q 140.54 -1.87 139.01 -0.76 Q 137.49 0.35 136.11 0.35 L 136.11 0.35 Q 133.35 0.35 132.67 -1.44 L 132.67 -1.44 Q 132.41 -2.15 132.41 -3.15 Z M 135.78 -6.9 L 135.78 -6.9 Q 136.71 -5.7 137.83 -5.7 L 137.83 -5.7 Q 138.54 -5.7 139.06 -6.4 Q 139.58 -7.09 139.58 -7.86 Q 139.58 -8.63 139.29 -8.89 Q 139 -9.16 138.46 -9.16 Q 137.92 -9.16 137.45 -8.91 Q 136.98 -8.67 136.65 -8.3 L 136.65 -8.3 Q 136.01 -7.58 135.78 -6.9 Z M 142.46 -3.96 L 142.46 -3.96 L 142.46 -5.32 L 144.93 -7.9 Q 143.44 -8.26 143.01 -9.05 L 143.01 -9.05 Q 142.91 -9.2 142.91 -9.33 L 142.91 -9.33 Q 142.91 -10.18 143.55 -10.83 Q 144.2 -11.47 145.28 -11.47 L 145.28 -11.47 Q 145.83 -11.47 145.83 -10.83 L 145.83 -10.83 Q 145.83 -10.45 145.61 -10 Q 145.39 -9.56 145.08 -9.4 L 145.08 -9.4 Q 145.64 -8.9 147.01 -8.9 L 147.01 -8.9 L 148.47 -9.07 Q 148.83 -9.07 148.83 -8.9 Q 148.83 -8.73 147.99 -6.98 L 147.99 -6.98 Q 146.06 -3.03 146.06 -2.22 L 146.06 -2.22 Q 146.06 -2.21 146.04 -2.13 Q 146.03 -2.05 146.04 -2.01 Q 146.06 -1.97 146.07 -1.89 Q 146.08 -1.82 146.11 -1.78 L 146.11 -1.78 Q 146.19 -1.67 146.35 -1.67 L 146.35 -1.67 Q 146.67 -1.67 148.3 -3.12 Q 149.93 -4.57 150.52 -5.37 L 150.52 -5.37 L 150.52 -4 Q 146.17 0.35 144.65 0.35 L 144.65 0.35 Q 144.12 0.35 143.85 -0.13 Q 143.58 -0.61 143.58 -1.07 Q 143.58 -1.54 143.76 -2.14 Q 143.95 -2.75 144.26 -3.53 Q 144.57 -4.31 144.84 -4.94 Q 145.1 -5.58 145.43 -6.32 Q 145.75 -7.06 145.8 -7.18 L 145.8 -7.18 Q 145.1 -6.47 144.18 -5.63 Q 143.26 -4.79 142.46 -3.96 Z M 148 -1.75 L 148 -1.75 Q 148 -2.22 148.35 -2.83 Q 148.71 -3.44 149.13 -3.91 Q 149.55 -4.37 150.12 -4.97 Q 150.7 -5.57 150.9 -5.82 L 150.9 -5.82 Q 150.57 -6.64 150.57 -7.6 L 150.57 -7.6 Q 150.57 -9.03 151.45 -9.97 Q 152.33 -10.9 154.08 -10.9 L 154.08 -10.9 Q 154.85 -10.9 154.85 -10.47 L 154.85 -10.47 Q 154.85 -9.72 154.19 -9.3 Q 153.54 -8.87 152.8 -8.87 L 152.8 -8.87 Q 153.21 -7.62 154.2 -6.62 L 154.2 -6.62 Q 154.57 -6.23 154.91 -5.87 L 154.91 -5.87 Q 155.7 -5.07 155.7 -4.48 L 155.7 -4.48 Q 155.7 -3.58 154.85 -2.4 L 154.85 -2.4 L 158.47 -5.37 L 158.47 -4.03 Q 158.33 -3.91 157.75 -3.39 Q 157.17 -2.88 156.9 -2.66 Q 156.64 -2.43 156.05 -1.95 Q 155.46 -1.48 155.1 -1.23 Q 154.74 -0.98 154.17 -0.62 Q 153.61 -0.27 153.2 -0.09 Q 152.78 0.09 152.29 0.22 Q 151.79 0.35 151.3 0.35 Q 150.81 0.35 150.26 0.26 Q 149.72 0.16 149.19 -0.06 L 149.19 -0.06 Q 148 -0.55 148 -1.75 Z M 150.68 -4.17 Q 149.24 -2.89 149.24 -2.2 Q 149.24 -1.51 149.95 -1.04 Q 150.66 -0.57 151.48 -0.57 Q 152.29 -0.57 152.8 -0.85 Q 153.3 -1.12 153.3 -1.55 Q 153.3 -1.98 153.19 -2.32 Q 153.08 -2.66 152.84 -3.03 Q 152.6 -3.41 152.42 -3.64 Q 152.25 -3.88 151.89 -4.3 Q 151.54 -4.72 151.43 -4.87 L 151.43 -4.87 Q 151.33 -4.76 150.68 -4.17 L 150.68 -4.17 Z M 162.29 -0.13 Q 162.02 -0.61 162.02 -1.37 Q 162.02 -2.12 162.71 -4.92 Q 163.39 -7.71 163.62 -8.3 Q 163.84 -8.89 163.99 -9.12 Q 164.14 -9.35 164.36 -9.48 Q 164.58 -9.62 164.74 -9.7 Q 164.9 -9.78 165.25 -9.81 L 165.25 -9.81 Q 165.72 -9.85 166.42 -9.85 L 166.42 -9.85 Q 164.49 -3.67 164.49 -2.43 L 164.49 -2.43 Q 164.49 -1.62 164.92 -1.62 L 164.92 -1.62 Q 165.19 -1.62 166.61 -3.02 Q 168.03 -4.42 168.87 -5.35 L 168.87 -5.35 L 168.87 -3.98 Q 166.47 -1.61 165.65 -0.93 L 165.65 -0.93 Q 164.16 0.31 163.1 0.35 L 163.1 0.35 Q 162.56 0.35 162.29 -0.13 Z M 165.72 -13.98 L 165.72 -13.98 Q 165.72 -14.59 166.18 -15.16 Q 166.64 -15.72 167.26 -15.72 Q 167.88 -15.72 168.19 -15.48 Q 168.49 -15.23 168.49 -14.74 Q 168.49 -14.25 167.91 -13.67 Q 167.33 -13.1 166.59 -13.1 L 166.59 -13.1 Q 165.72 -13.1 165.72 -13.98 Z M 169.42 0 L 167.09 0 Q 167.1 -1.32 167.83 -4.37 Q 168.57 -7.42 169.14 -8.87 L 169.14 -8.87 Q 169.37 -9.46 169.81 -9.66 Q 170.24 -9.85 170.97 -9.85 L 170.97 -9.85 L 171.79 -9.85 Q 170.9 -6.77 170.47 -5.42 L 170.47 -5.42 Q 171.29 -6.95 172.84 -8.52 L 172.84 -8.52 Q 173.6 -9.28 174.49 -9.77 Q 175.38 -10.25 176.17 -10.25 L 176.17 -10.25 Q 177.37 -10.25 177.37 -8.83 L 177.37 -8.83 Q 177.37 -8.14 176.51 -5.58 Q 175.65 -3.03 175.65 -2.76 Q 175.65 -2.5 175.8 -2.5 Q 175.95 -2.5 176.2 -2.67 Q 176.45 -2.83 177.65 -3.97 Q 178.85 -5.11 179.09 -5.32 L 179.09 -5.32 L 179.09 -3.96 Q 177.15 -1.98 175.65 -0.81 Q 174.16 0.35 173.66 0.35 L 173.66 0.35 Q 172.74 0.35 172.74 -0.67 Q 172.74 -1.7 173.2 -3.12 Q 173.66 -4.54 174.11 -5.69 Q 174.57 -6.85 174.57 -7.24 Q 174.57 -7.63 174.43 -7.81 Q 174.29 -8 174.1 -8 L 174.1 -8 Q 173.4 -8 172.6 -7.03 Q 171.79 -6.05 171.15 -4.68 L 171.15 -4.68 Q 169.84 -1.82 169.42 0 L 169.42 0 Z M 178.05 -1.67 L 178.05 -1.67 Q 178.05 -2.78 178.4 -4.29 Q 178.75 -5.8 178.99 -6.76 Q 179.24 -7.71 179.53 -8.97 L 179.53 -8.97 Q 179.36 -8.97 179.24 -8.97 Q 179.13 -8.97 179.02 -8.98 Q 178.91 -8.98 178.85 -9 Q 178.78 -9.01 178.7 -9.03 Q 178.63 -9.06 178.58 -9.09 Q 178.53 -9.13 178.48 -9.18 L 178.48 -9.18 Q 178.39 -9.28 178.39 -9.44 Q 178.39 -9.61 178.41 -9.66 L 178.41 -9.66 Q 178.45 -9.78 178.85 -9.83 L 178.85 -9.83 L 179.87 -9.92 Q 180.44 -11.83 180.68 -12.35 Q 180.91 -12.87 181.12 -13.28 Q 181.34 -13.7 181.54 -13.93 Q 181.74 -14.16 182.01 -14.43 Q 182.28 -14.7 182.57 -14.83 L 182.57 -14.83 Q 183.26 -15.15 184 -15.15 L 184 -15.15 L 184.05 -15.1 Q 184.05 -15.05 183.73 -14.15 L 183.73 -14.15 Q 182.68 -11.15 182.32 -9.92 L 182.32 -9.92 L 186.05 -10.1 L 185.78 -9.66 Q 185.47 -9.09 182.13 -9.09 L 182.13 -9.09 Q 182.12 -9.09 181.75 -7.74 L 181.75 -7.74 Q 180.65 -3.7 180.65 -2.84 L 180.65 -2.84 Q 180.65 -1.98 180.85 -1.85 Q 181.04 -1.72 181.25 -1.72 L 181.25 -1.72 Q 181.91 -1.72 185.9 -5.51 L 185.9 -5.51 L 185.9 -4.13 Q 185.49 -3.75 184.75 -3.06 Q 184.02 -2.38 183.6 -2 Q 183.18 -1.61 182.55 -1.1 Q 181.92 -0.59 181.48 -0.32 L 181.48 -0.32 Q 180.36 0.35 179.5 0.35 L 179.5 0.35 Q 178.05 0.35 178.05 -1.67 Z M 184.41 -3.87 L 184.41 -3.87 Q 184.41 -6.84 186.52 -8.54 Q 188.62 -10.25 192.11 -10.25 L 192.11 -10.25 Q 192.36 -10.25 192.38 -10.1 L 192.38 -10.1 Q 192.38 -9.74 192.11 -9.57 L 192.11 -9.57 Q 189.69 -9.57 188.4 -8.18 L 188.4 -8.18 Q 187.21 -6.86 187.21 -5.22 Q 187.21 -3.58 187.93 -2.6 Q 188.66 -1.62 189.71 -1.62 Q 190.76 -1.62 191.74 -2.72 L 191.74 -2.72 Q 190.82 -3.3 190.33 -4.24 Q 189.83 -5.18 189.83 -6.15 Q 189.83 -7.12 190.42 -7.72 Q 191 -8.33 192.11 -8.33 Q 193.23 -8.33 193.73 -7.73 Q 194.24 -7.13 194.24 -6.26 L 194.24 -6.26 Q 194.24 -4.48 193.1 -3.1 L 193.1 -3.1 Q 193.41 -2.98 193.63 -2.98 Q 193.85 -2.98 194.09 -3.08 Q 194.32 -3.19 194.63 -3.45 Q 194.93 -3.71 195.17 -3.94 Q 195.4 -4.17 195.84 -4.64 Q 196.28 -5.1 196.58 -5.4 L 196.58 -5.4 L 196.58 -4.05 Q 195.57 -2.98 194.94 -2.53 Q 194.31 -2.08 193.71 -2.08 Q 193.1 -2.08 192.6 -2.25 L 192.6 -2.25 Q 191.66 -1.1 190.37 -0.37 Q 189.09 0.35 187.71 0.35 L 187.71 0.35 Q 185.73 0.35 184.89 -1.51 L 184.89 -1.51 Q 184.41 -2.56 184.41 -3.87 Z M 191.09 -5.97 L 191.09 -5.97 Q 191.09 -5.35 191.42 -4.68 Q 191.76 -4.02 192.33 -3.63 L 192.33 -3.63 Q 192.58 -4.03 192.83 -4.74 Q 193.08 -5.46 193.08 -6.03 L 193.08 -6.03 Q 193.08 -7.15 192.08 -7.15 Q 191.09 -7.15 191.09 -5.97 Z M 199.37 0.58 Q 199 0 199 -0.76 Q 199 -1.51 199.58 -2 Q 200.17 -2.49 201.03 -2.53 L 201.03 -2.53 L 201.55 -2.55 Q 201.5 -1.89 201.5 -1.44 Q 201.5 -0.99 201.51 -0.82 Q 201.51 -0.65 201.56 -0.33 Q 201.6 -0.01 201.68 0.14 Q 201.76 0.29 201.93 0.51 Q 202.1 0.72 202.34 0.82 L 202.34 0.82 Q 203 1.07 203.72 1.07 Q 204.44 1.07 205.08 0.92 Q 205.71 0.76 206.32 0.44 Q 206.93 0.12 207.42 -0.32 L 207.42 -0.32 Q 208.51 -1.29 208.51 -2.67 L 208.51 -2.67 Q 208.51 -3.98 207.2 -5.51 L 207.2 -5.51 Q 206.54 -6.27 205.18 -7.64 Q 203.82 -9 203.23 -9.67 L 203.23 -9.67 Q 201.93 -11.18 201.93 -12.39 Q 201.93 -13.6 202.41 -14.59 Q 202.89 -15.58 203.69 -16.28 Q 204.48 -16.98 205.49 -17.5 L 205.49 -17.5 Q 207.5 -18.53 209.66 -18.53 L 209.66 -18.53 Q 211.12 -18.53 212.38 -17.77 L 212.38 -17.77 Q 213.02 -17.4 213.43 -16.67 Q 213.83 -15.94 213.83 -14.98 L 213.83 -14.98 Q 213.83 -14.73 211.43 -13.33 Q 209.02 -11.93 208.37 -11.69 L 208.37 -11.69 L 208.37 -12.9 Q 208.54 -13 209.5 -13.45 L 209.5 -13.45 Q 211.63 -14.45 211.63 -14.95 L 211.63 -14.95 Q 211.63 -17.37 209.08 -17.37 L 209.08 -17.37 Q 208.04 -17.37 207.03 -16.96 Q 206.02 -16.54 205.3 -15.69 Q 204.58 -14.83 204.58 -13.96 Q 204.58 -13.1 204.94 -12.45 Q 205.3 -11.8 205.88 -11.24 Q 206.47 -10.67 207.17 -10.08 Q 207.86 -9.48 208.56 -8.83 Q 209.27 -8.18 209.85 -7.47 L 209.85 -7.47 Q 211.16 -5.9 211.16 -3.96 L 211.16 -3.96 Q 211.16 -2.77 210.66 -1.75 Q 210.16 -0.73 209.33 -0.02 Q 208.51 0.68 207.43 1.2 L 207.43 1.2 Q 205.33 2.2 202.93 2.2 L 202.93 2.2 Q 201.51 2.2 200.32 1.5 L 200.32 1.5 Q 199.73 1.16 199.37 0.58 Z M 213.33 -1.67 L 213.33 -1.67 Q 213.33 -2.78 213.68 -4.29 Q 214.03 -5.8 214.27 -6.76 Q 214.51 -7.71 214.81 -8.97 L 214.81 -8.97 Q 214.64 -8.97 214.52 -8.97 Q 214.4 -8.97 214.29 -8.98 Q 214.18 -8.98 214.12 -9 Q 214.06 -9.01 213.98 -9.03 Q 213.9 -9.06 213.85 -9.09 Q 213.81 -9.13 213.76 -9.18 L 213.76 -9.18 Q 213.67 -9.28 213.67 -9.44 Q 213.67 -9.61 213.68 -9.66 L 213.68 -9.66 Q 213.73 -9.78 214.12 -9.83 L 214.12 -9.83 L 215.15 -9.92 Q 215.72 -11.83 215.95 -12.35 Q 216.19 -12.87 216.4 -13.28 Q 216.61 -13.7 216.82 -13.93 Q 217.02 -14.16 217.29 -14.43 Q 217.55 -14.7 217.85 -14.83 L 217.85 -14.83 Q 218.54 -15.15 219.27 -15.15 L 219.27 -15.15 L 219.32 -15.1 Q 219.32 -15.05 219.01 -14.15 L 219.01 -14.15 Q 217.96 -11.15 217.6 -9.92 L 217.6 -9.92 L 221.33 -10.1 L 221.06 -9.66 Q 220.75 -9.09 217.41 -9.09 L 217.41 -9.09 Q 217.4 -9.09 217.03 -7.74 L 217.03 -7.74 Q 215.93 -3.7 215.93 -2.84 L 215.93 -2.84 Q 215.93 -1.98 216.13 -1.85 Q 216.32 -1.72 216.53 -1.72 L 216.53 -1.72 Q 217.19 -1.72 221.18 -5.51 L 221.18 -5.51 L 221.18 -4.13 Q 220.76 -3.75 220.03 -3.06 Q 219.3 -2.38 218.88 -2 Q 218.46 -1.61 217.83 -1.1 Q 217.2 -0.59 216.76 -0.32 L 216.76 -0.32 Q 215.64 0.35 214.78 0.35 L 214.78 0.35 Q 213.33 0.35 213.33 -1.67 Z M 221.01 -3.96 L 221.01 -3.96 L 221.01 -5.32 L 223.49 -7.9 Q 222 -8.26 221.56 -9.05 L 221.56 -9.05 Q 221.46 -9.2 221.46 -9.33 L 221.46 -9.33 Q 221.46 -10.18 222.11 -10.83 Q 222.75 -11.47 223.83 -11.47 L 223.83 -11.47 Q 224.38 -11.47 224.38 -10.83 L 224.38 -10.83 Q 224.38 -10.45 224.16 -10 Q 223.94 -9.56 223.63 -9.4 L 223.63 -9.4 Q 224.19 -8.9 225.56 -8.9 L 225.56 -8.9 L 227.03 -9.07 Q 227.38 -9.07 227.38 -8.9 Q 227.38 -8.73 226.54 -6.98 L 226.54 -6.98 Q 224.61 -3.03 224.61 -2.22 L 224.61 -2.22 Q 224.61 -2.21 224.6 -2.13 Q 224.58 -2.05 224.6 -2.01 Q 224.61 -1.97 224.62 -1.89 Q 224.63 -1.82 224.66 -1.78 L 224.66 -1.78 Q 224.74 -1.67 224.9 -1.67 L 224.9 -1.67 Q 225.22 -1.67 226.85 -3.12 Q 228.48 -4.57 229.08 -5.37 L 229.08 -5.37 L 229.08 -4 Q 224.72 0.35 223.21 0.35 L 223.21 0.35 Q 222.67 0.35 222.4 -0.13 Q 222.13 -0.61 222.13 -1.07 Q 222.13 -1.54 222.31 -2.14 Q 222.5 -2.75 222.81 -3.53 Q 223.12 -4.31 223.39 -4.94 Q 223.66 -5.58 223.98 -6.32 Q 224.3 -7.06 224.35 -7.18 L 224.35 -7.18 Q 223.66 -6.47 222.74 -5.63 Q 221.81 -4.79 221.01 -3.96 Z M 227.55 -2.75 L 227.55 -2.75 Q 227.55 -4.08 228.21 -5.43 Q 228.87 -6.79 229.95 -7.85 Q 231.03 -8.91 232.54 -9.58 Q 234.05 -10.25 235.62 -10.25 L 235.62 -10.25 Q 236.39 -10.25 237.67 -9.85 L 237.67 -9.85 Q 237.66 -9.77 237.43 -8.73 Q 237.19 -7.7 236.96 -6.63 L 236.96 -6.63 Q 236.33 -3.69 236.33 -2.98 Q 236.33 -2.27 236.69 -2.27 L 236.69 -2.27 Q 237.5 -2.27 240.43 -5.37 L 240.43 -5.37 L 240.43 -4 Q 238.57 -2.09 236.9 -0.87 Q 235.22 0.35 234.66 0.35 L 234.66 0.35 Q 233.73 0.35 233.73 -1.25 L 233.73 -1.25 Q 233.73 -1.77 233.83 -2.43 L 233.83 -2.43 Q 232.95 -1.28 231.78 -0.46 Q 230.62 0.35 229.43 0.35 L 229.43 0.35 Q 227.97 0.35 227.62 -1.71 L 227.62 -1.71 Q 227.55 -2.21 227.55 -2.75 Z M 230.15 -3.43 L 230.15 -3.43 Q 230.15 -1.6 231.35 -1.6 L 231.35 -1.6 Q 231.86 -1.6 232.61 -2.14 Q 233.36 -2.67 233.97 -3.32 L 233.97 -3.32 L 235.38 -9.33 Q 234.06 -9.33 232.82 -8.39 Q 231.59 -7.45 230.87 -6.08 Q 230.15 -4.71 230.15 -3.43 Z M 239.36 -1.67 L 239.36 -1.67 Q 239.36 -2.78 239.7 -4.29 Q 240.05 -5.8 240.3 -6.76 Q 240.54 -7.71 240.83 -8.97 L 240.83 -8.97 Q 240.66 -8.97 240.55 -8.97 Q 240.43 -8.97 240.32 -8.98 Q 240.21 -8.98 240.15 -9 Q 240.09 -9.01 240.01 -9.03 Q 239.93 -9.06 239.88 -9.09 Q 239.83 -9.13 239.78 -9.18 L 239.78 -9.18 Q 239.7 -9.28 239.7 -9.44 Q 239.7 -9.61 239.71 -9.66 L 239.71 -9.66 Q 239.76 -9.78 240.15 -9.83 L 240.15 -9.83 L 241.17 -9.92 Q 241.75 -11.83 241.98 -12.35 Q 242.21 -12.87 242.43 -13.28 Q 242.64 -13.7 242.84 -13.93 Q 243.04 -14.16 243.31 -14.43 Q 243.58 -14.7 243.87 -14.83 L 243.87 -14.83 Q 244.57 -15.15 245.3 -15.15 L 245.3 -15.15 L 245.35 -15.1 Q 245.35 -15.05 245.03 -14.15 L 245.03 -14.15 Q 243.98 -11.15 243.63 -9.92 L 243.63 -9.92 L 247.35 -10.1 L 247.08 -9.66 Q 246.78 -9.09 243.43 -9.09 L 243.43 -9.09 Q 243.42 -9.09 243.05 -7.74 L 243.05 -7.74 Q 241.96 -3.7 241.96 -2.84 L 241.96 -2.84 Q 241.96 -1.98 242.15 -1.85 Q 242.35 -1.72 242.55 -1.72 L 242.55 -1.72 Q 243.21 -1.72 247.2 -5.51 L 247.2 -5.51 L 247.2 -4.13 Q 246.79 -3.75 246.06 -3.06 Q 245.32 -2.38 244.9 -2 Q 244.48 -1.61 243.85 -1.1 Q 243.23 -0.59 242.79 -0.32 L 242.79 -0.32 Q 241.66 0.35 240.81 0.35 L 240.81 0.35 Q 239.36 0.35 239.36 -1.67 Z M 245.79 -3.15 L 245.79 -3.15 Q 245.79 -4.93 246.53 -6.55 Q 247.28 -8.17 248.68 -9.21 Q 250.07 -10.25 251.78 -10.25 L 251.78 -10.25 Q 254.66 -10.25 254.66 -8.11 L 254.66 -8.11 Q 254.66 -6.71 253.54 -5.68 Q 252.42 -4.65 251.01 -4.65 L 251.01 -4.65 Q 250.45 -4.65 249.84 -4.98 Q 249.23 -5.31 248.8 -5.97 L 248.8 -5.97 Q 248.28 -4.87 248.28 -3.82 L 248.28 -3.82 Q 248.28 -1 250.33 -1 L 250.33 -1 Q 250.87 -1 251.65 -1.51 Q 252.44 -2.03 253.05 -2.59 Q 253.65 -3.16 254.58 -4.1 Q 255.51 -5.03 255.86 -5.35 L 255.86 -5.35 L 255.86 -4 Q 253.92 -1.87 252.39 -0.76 Q 250.87 0.35 249.49 0.35 L 249.49 0.35 Q 246.73 0.35 246.04 -1.44 L 246.04 -1.44 Q 245.79 -2.15 245.79 -3.15 Z M 249.16 -6.9 L 249.16 -6.9 Q 250.09 -5.7 251.21 -5.7 L 251.21 -5.7 Q 251.92 -5.7 252.44 -6.4 Q 252.95 -7.09 252.95 -7.86 Q 252.95 -8.63 252.67 -8.89 Q 252.38 -9.16 251.84 -9.16 Q 251.29 -9.16 250.82 -8.91 Q 250.35 -8.67 250.02 -8.3 L 250.02 -8.3 Q 249.39 -7.58 249.16 -6.9 Z M 255.02 -0.4 Q 254.58 -1.16 254.58 -2.18 Q 254.58 -3.2 254.9 -4.35 Q 255.22 -5.51 255.84 -6.56 Q 256.46 -7.6 257.28 -8.44 Q 258.09 -9.27 259.18 -9.76 Q 260.27 -10.25 261.39 -10.25 Q 262.51 -10.25 265.08 -9.78 L 265.08 -9.78 L 263.21 -1.88 Q 263.54 -2.19 264.2 -2.81 Q 264.87 -3.44 265.15 -3.71 L 265.15 -3.71 Q 265.88 -4.38 266.78 -5.37 L 266.78 -5.37 L 266.78 -4 L 262.95 -0.28 Q 262.38 2.88 260.72 4.83 L 260.72 4.83 Q 259.96 5.7 259.13 6.19 Q 258.3 6.68 257.64 6.68 Q 256.98 6.68 256.48 6.5 Q 255.97 6.32 255.6 5.91 Q 255.22 5.49 255.22 5.11 Q 255.22 4.74 255.27 4.57 Q 255.31 4.39 255.44 4.21 Q 255.58 4.03 255.66 3.91 Q 255.74 3.8 255.98 3.59 Q 256.23 3.38 256.31 3.31 Q 256.4 3.23 256.73 2.98 Q 257.06 2.73 257.13 2.67 L 257.13 2.67 L 260.51 0.07 L 260.9 -2 Q 259.34 -0.61 258.31 -0.13 Q 257.28 0.35 256.37 0.35 Q 255.47 0.35 255.02 -0.4 Z M 257.23 4.22 Q 257.01 4.68 257.01 5.16 Q 257.01 5.64 257.22 5.82 Q 257.43 6.01 257.91 6.01 L 257.91 6.01 Q 258.89 6.01 259.5 4.75 Q 260.12 3.49 260.35 1.43 L 260.35 1.43 L 258.35 3.13 Q 258.28 3.19 258.06 3.36 Q 257.84 3.53 257.74 3.61 Q 257.64 3.7 257.47 3.88 Q 257.3 4.06 257.23 4.22 L 257.23 4.22 Z M 257.25 -3.96 L 257.25 -3.96 Q 257.25 -1.6 258.44 -1.6 L 258.44 -1.6 Q 259.48 -1.6 261.08 -3.41 L 261.08 -3.41 L 262.5 -9.35 Q 261.61 -9.57 261.3 -9.57 L 261.3 -9.57 Q 260.49 -9.57 259.72 -9.03 Q 258.95 -8.5 258.42 -7.68 L 258.42 -7.68 Q 257.25 -5.88 257.25 -3.96 Z M 265.23 -1.75 L 265.23 -1.75 Q 265.23 -3.3 267.43 -9.55 L 267.43 -9.55 Q 267.48 -9.85 269.41 -9.85 L 269.41 -9.85 L 269.84 -9.85 Q 269.84 -9.83 269.34 -8.25 L 269.34 -8.25 Q 267.83 -3.53 267.83 -2.65 Q 267.83 -1.77 268.65 -1.77 L 268.65 -1.77 Q 269.35 -1.77 270.38 -2.37 Q 271.41 -2.97 271.58 -3.32 L 271.58 -3.32 L 272.91 -8.4 Q 273.18 -9.44 273.65 -9.67 L 273.65 -9.67 Q 274 -9.85 274.78 -9.85 L 274.78 -9.85 L 275.61 -9.85 Q 275.33 -9.06 274.84 -7.24 Q 274.34 -5.42 274.13 -4.66 L 274.13 -4.66 Q 273.68 -3.02 273.51 -2.33 L 273.51 -2.33 L 273.41 -2 Q 276.2 -4.32 277.28 -5.37 L 277.28 -5.37 L 277.28 -4 L 273.21 -0.33 L 273.21 -0.28 Q 272.92 1.27 272.32 2.5 Q 271.72 3.74 270.96 4.47 L 270.96 4.47 Q 269.41 5.97 267.79 5.97 L 267.79 5.97 Q 266.94 5.97 266.21 5.43 Q 265.48 4.9 265.48 4.16 Q 265.48 3.43 265.97 2.92 Q 266.47 2.42 267.38 1.9 L 267.38 1.9 L 271.06 -0.43 L 271.46 -2.38 Q 268.62 0.35 266.66 0.35 L 266.66 0.35 Q 265.91 0.35 265.57 -0.23 Q 265.23 -0.82 265.23 -1.75 Z M 267.31 4.13 L 267.31 4.13 Q 267.31 5.13 268.21 5.13 L 268.21 5.13 Q 269.3 5.13 269.97 4.02 Q 270.64 2.91 270.91 1.07 L 270.91 1.07 L 268.65 2.5 Q 268.25 2.75 268.01 2.92 Q 267.77 3.1 267.54 3.43 Q 267.31 3.76 267.31 4.13 Z" stroke-linecap="round" />
</g>
</g>
</g>
</svg>